<?xml version="1.0" encoding="utf-8"?>
<!-- Generator: Adobe Illustrator 18.1.1, SVG Export Plug-In . SVG Version: 6.00 Build 0)  -->
<!DOCTYPE svg PUBLIC "-//W3C//DTD SVG 1.1//EN" "http://www.w3.org/Graphics/SVG/1.1/DTD/svg11.dtd">
<svg version="1.1" id="Layer_1" xmlns="http://www.w3.org/2000/svg" xmlns:xlink="http://www.w3.org/1999/xlink" x="0px" y="0px"
	 width="348.2px" height="348.2px" viewBox="0 0 348.2 348.2" enable-background="new 0 0 348.2 348.2" xml:space="preserve">
<path fill="#005DA9" stroke="#FFFFFF" stroke-width="8.0725" stroke-miterlimit="3.8637" d="M4,174.1C4,80.2,80.2,4,174.1,4
	s170.1,76.1,170.1,170.1c0,93.9-76.1,170.1-170.1,170.1S4,268,4,174.1L4,174.1L4,174.1z"/>
<g>
	<g>
		<path fill="#FFFFFF" d="M127.2,223.5c-18.7,0-27.8,11.2-27.8,25c0,13.8,9.1,25,27.8,25c18.7,0,27.8-11.2,27.8-25
			C155,234.7,145.9,223.5,127.2,223.5z M127.2,268.4c-9.9,0-14.7-8.9-14.7-19.9c0-11,4.8-19.9,14.7-19.9c9.9,0,14.7,8.9,14.7,19.9
			C141.9,259.5,137.1,268.4,127.2,268.4z"/>
		<path fill="#FFFFFF" d="M90.3,235v-8.3c-6.8-2.4-10.9-3.2-16.5-3.2c-17.9,0-27.6,11.8-27.6,25c0,14.7,11.8,25,28.9,25
			c7.1,0,12.9-2,15.7-3.2l2.2-7.1c-4.8,2.2-9.9,3.8-15.3,3.8c-9.9,0-19.1-5.8-19.1-19.4c0-11.5,7.4-19,17.4-19
			C82.8,228.6,87.9,232.3,90.3,235z"/>
		<path fill="#FFFFFF" d="M257.7,234.1l-1.7-9.4h-43.2l-1.7,9.4c4.9-4.4,11.2-4.7,17.5-4v31.1c0,4.2-0.4,7.3-3.2,11.2h17.9
			c-2.8-3.9-3.2-7.1-3.2-11.2v-31.1C246.5,229.3,252.8,229.7,257.7,234.1z"/>
		<path fill="#FFFFFF" d="M296.1,235.7v-9.6c-3.4-1.4-7.9-2.6-12.8-2.6c-11.8,0-17.1,8-17.1,13.3c0,7,4.3,10.2,10.4,14
			c6.7,4.2,12,6,12,10.4c0,2.9-2.9,6.7-8.5,6.7c-6.8,0-11.5-3.3-16-7.8v10.3c4.6,1.9,7.7,3.2,14.7,3.2c9.5,0,19.8-5.6,19.8-15.7
			c0-7.8-7.6-11.7-14.1-15.4c-4.9-2.8-9-4.9-9-8c0-3.1,2.9-5.9,7.4-5.9C287.3,228.6,291.2,230,296.1,235.7z"/>
		<path fill="#FFFFFF" d="M213.4,272.4c-4-2.5-6-7.2-7.6-11.2l-14.5-36.5h-14.8c1.5,2.3,0.4,4.4-0.7,7l-12,29.5
			c-2.2,5.3-3.6,7.2-8.1,11.2h15.6c-3-4-1.4-7.7,0-11.2l11.4-28l8.6,21.7h-15l2,5h15.1l0.5,1.3c2.6,6.5,1.4,9.5-0.3,11.2H213.4z"/>
	</g>
	<g>
		<path fill="#FFFFFF" d="M234.8,130.5c-0.3,1.5-0.6,3-0.9,4.5c-3-3.1-4.7-8.4-4.7-14.6c0-6.5,1.8-11.9,5.1-15
			c-0.9-3.4-2-6.7-3.4-9.9c-6.1,4.6-9.5,13.6-9.5,24.9c0,11,3.2,19.9,9.1,24.6c-1.6,3.7-3.6,7.2-5.9,10.5c-7.1-3.2-16.8-1.7-26.7,4
			c-10,5.8-16.2,13.5-16.9,21.3c-1.9,0.2-3.8,0.3-5.8,0.3c-1.9,0-3.9-0.1-5.8-0.3c-0.7-7.8-6.9-15.5-16.9-21.3
			c-9.9-5.7-19.6-7.3-26.7-4c-2.3-3.3-4.3-6.8-5.9-10.5c5.9-4.7,9.1-13.6,9.1-24.6c0-11.2-3.4-20.3-9.5-24.9
			c-1.4,3.2-2.6,6.5-3.4,9.9c3.3,3.1,5.1,8.5,5.1,15c0,6.2-1.7,11.4-4.7,14.6c-0.4-1.5-0.7-3-0.9-4.5c-0.5-3.3-3.2-5.5-6.8-4.7
			c1.6,20.5,12.5,38.4,28.5,49.4c2.1-2.2,2.3-5.5-0.6-7.9c-1.5-1.2-2.9-2.5-4.3-3.9c4.4-1.6,10.3-0.5,16.1,2.9
			c5.9,3.4,9.8,8,10.6,12.7c-1.8-0.5-3.5-1-5.2-1.7c-3.6-1.3-6.5,0.3-7.4,3.3c8.7,4.1,18.3,6.4,28.6,6.4c10.2,0,19.9-2.3,28.6-6.4
			c-0.9-3-3.8-4.7-7.4-3.3c-1.7,0.6-3.4,1.2-5.2,1.7c0.7-4.6,4.6-9.2,10.6-12.7c5.9-3.4,11.8-4.5,16.1-2.9c-1.4,1.4-2.8,2.7-4.3,3.9
			c-2.9,2.4-2.7,5.7-0.6,7.9c16-11.1,26.9-28.9,28.5-49.4C238,125,235.3,127.2,234.8,130.5z"/>
		<path fill="#FFFFFF" d="M242,92.2c-2.3-5.5-5.3-10.7-8.9-15.4c0-0.1,0.1-0.1,0.1-0.2c6.2-10.8-0.3-23-14.6-31.2
			c-14.3-8.2-28.2-7.7-34.4,3.1c-3-0.4-6-0.6-9-0.6c-3.1,0-6.1,0.2-9,0.6c-6.2-10.8-20.1-11.4-34.4-3.1
			c-14.3,8.2-20.8,20.4-14.6,31.2c0,0.1,0.1,0.1,0.1,0.2c-3.6,4.7-6.6,9.9-8.9,15.4c-11.9,0.5-18.9,12.1-18.9,28.2
			c0,16.2,7.1,27.8,19.1,28.2c-1.6-3.7-2.8-7.5-3.7-11.5c-4.8-2.4-7.6-8.7-7.6-16.7c0-7.8,2.7-14.1,7.3-16.6c-0.4,1.7-0.7,3.4-1,5.1
			c-0.6,3.5,2.2,6.2,5.3,6.1c1.6-20.5,12.5-38.4,28.5-49.4c-1.3-2.3-4.8-4-8-1.5c-1.5,1.2-2.9,2.5-4.3,3.8
			c-1-5.6,3.3-11.7,10.6-15.9c7.3-4.2,14.6-4.8,19-1.3c-1.6,0.5-3.2,1-4.8,1.6c-3.8,1.4-4.9,4.5-3.2,7.8c8.7-4.1,18.3-6.4,28.6-6.4
			c10.2,0,19.9,2.3,28.6,6.4c1.7-3.3,0.6-6.4-3.2-7.8c-1.6-0.6-3.2-1.1-4.8-1.6c4.4-3.6,11.7-3,19,1.3c7.3,4.2,11.5,10.3,10.6,15.9
			c-1.4-1.3-2.8-2.6-4.3-3.8c-3.1-2.5-6.7-0.8-8,1.5c16,11.1,26.9,28.9,28.5,49.4c3,0.1,5.8-2.6,5.3-6.1c-0.3-1.7-0.6-3.5-1-5.1
			c4.6,2.5,7.3,8.8,7.3,16.6c0,8-2.8,14.4-7.6,16.7c-0.9,4-2.2,7.8-3.7,11.5c12.1-0.4,19.1-12,19.1-28.2
			C260.9,104.3,253.9,92.7,242,92.2z"/>
		<path fill="#FFFFFF" d="M198.9,79.6c9.3,5.4,18.4,7,25.3,4.6c-2.1-2.9-4.5-5.5-7.1-8c-4.1,0.8-9.2-0.4-14.3-3.4
			c-5.1-3-8.7-6.8-10.1-10.8c-3.4-1-6.9-1.7-10.5-2.1C183.5,67.2,189.6,74.2,198.9,79.6z"/>
		<path fill="#FFFFFF" d="M224.4,173.5c-0.4,4.9-4.4,9.9-10.7,13.5c-6.2,3.6-12.5,4.6-16.9,2.5c-4,1.3-8.2,2.2-12.5,2.7
			c6.6,9.3,19.8,9.4,33.4,1.5c13.6-7.9,20.2-19.4,15.3-29.8C230.4,167.4,227.5,170.6,224.4,173.5z"/>
		<path fill="#FFFFFF" d="M151.6,79.6c9.3-5.4,15.3-12.4,16.7-19.7c-3.6,0.4-7.1,1.1-10.5,2.1c-1.4,4-5,7.8-10.1,10.8
			c-5.1,2.9-10.2,4.1-14.3,3.4c-2.6,2.5-5,5.1-7.1,8C133.2,86.6,142.3,85,151.6,79.6z"/>
		<path fill="#FFFFFF" d="M136.7,187c-6.3-3.6-10.3-8.6-10.7-13.5c-3.1-2.9-6-6.1-8.5-9.5c-4.9,10.4,1.7,21.9,15.3,29.8
			c13.6,7.8,26.8,7.8,33.4-1.5c-4.3-0.5-8.5-1.5-12.5-2.7C149.3,191.6,143,190.6,136.7,187z"/>
	</g>
</g>
</svg>
